<?xml version="1.0" encoding="utf-8"?>
<!-- Generator: Adobe Illustrator 26.0.3, SVG Export Plug-In . SVG Version: 6.00 Build 0)  -->
<svg version="1.1" id="Laag_1" xmlns="http://www.w3.org/2000/svg" xmlns:xlink="http://www.w3.org/1999/xlink" x="0px" y="0px"
	 viewBox="0 0 1055.35 494.7" style="enable-background:new 0 0 1055.35 494.7;" xml:space="preserve">
<style type="text/css">
	.st0{fill:#FFFFFF;}
</style>
<path class="st0" d="M214.6,68.28c-98.66,0-178.65,79.98-178.65,178.65s79.98,178.65,178.65,178.65s178.65-79.98,178.65-178.65
	S313.26,68.28,214.6,68.28z M214.65,353.24c-10.81,0.8-21.56-4.94-26.54-15.25l-45.4-91.48l-10.31,15.87l-15.76,24.7
	c-7.93,11.6-23.14,15.23-36.46,10.39c-2.7-0.98-7.38-2.73-12.08-8.36c-2.55-3.05-3.66-8.71-0.27-14.32
	c0.08-0.13,4.79-7.54,4.79-7.54l19.31-29.8l33.3-51.59c2.75-4.02,6.38-7.06,10.5-9.15c0.07-0.04,0.13-0.09,0.2-0.13l0.03,0.01
	c7.71-3.82,17.11-4.25,25.72-1.12c2.7,0.98,7.38,2.73,12.08,8.36c0.64,0.77,1.2,1.71,1.61,2.77l39.16,81.17l60.06-110.17
	c7.15-13.11,23.73-17.99,36.84-10.84h0c13.11,7.15,17.99,23.73,10.84,36.84l-84.8,155.55C232.74,347.8,223.89,352.86,214.65,353.24z
	 M324.94,304.61c-15.34,0-27.78-12.44-27.78-27.78s12.44-27.78,27.78-27.78s27.78,12.44,27.78,27.78S340.28,304.61,324.94,304.61z"
	/>
<g>
	<path class="st0" d="M499.02,304.99c0-0.63,0.56-1.19,1.19-1.19h4.13c0.69,0,1.19,0.56,1.19,1.19v17.45h22.9v-17.45
		c0-0.63,0.5-1.19,1.19-1.19h4.13c0.63,0,1.19,0.56,1.19,1.19v41.42c0,0.63-0.56,1.19-1.19,1.19h-4.13c-0.69,0-1.19-0.56-1.19-1.19
		v-18.08h-22.9v18.08c0,0.63-0.5,1.19-1.19,1.19h-4.13c-0.63,0-1.19-0.56-1.19-1.19V304.99z"/>
	<path class="st0" d="M572.59,303.17c12.51,0,22.52,10.07,22.52,22.58s-10.01,22.46-22.52,22.46s-22.46-9.95-22.46-22.46
		S560.08,303.17,572.59,303.17z M572.59,341.96c8.95,0,16.27-7.26,16.27-16.2c0-8.88-7.32-16.33-16.27-16.33
		c-8.88,0-16.2,7.44-16.2,16.33C556.39,334.71,563.71,341.96,572.59,341.96z"/>
	<path class="st0" d="M629.65,303.17c6.01,0,10.95,2.19,15.2,5.82c0.5,0.5,0.56,1.25,0.06,1.75c-0.94,1-1.88,1.94-2.81,2.94
		c-0.5,0.56-1,0.5-1.63-0.06c-2.94-2.56-6.82-4.25-10.63-4.25c-8.88,0-15.7,7.51-15.7,16.27c0,8.7,6.82,16.2,15.7,16.2
		c5.19,0,8.76-1.88,9.38-2.13v-7.01h-6.13c-0.69,0-1.19-0.5-1.19-1.13v-3.63c0-0.69,0.5-1.19,1.19-1.19h11.39
		c0.63,0,1.13,0.56,1.13,1.19c0,5,0.06,10.13,0.06,15.14c0,0.31-0.25,0.81-0.5,1c0,0-6.44,4.13-15.51,4.13
		c-12.45,0-22.52-9.95-22.52-22.46S617.2,303.17,629.65,303.17z"/>
	<path class="st0" d="M661.75,304.99c0-0.63,0.5-1.19,1.19-1.19h25.02c0.69,0,1.19,0.56,1.19,1.19v3.5c0,0.63-0.5,1.19-1.19,1.19
		h-19.77v12.76h16.7c0.63,0,1.19,0.56,1.19,1.19v3.5c0,0.69-0.56,1.19-1.19,1.19h-16.7v13.45h19.77c0.69,0,1.19,0.56,1.19,1.19v3.44
		c0,0.63-0.5,1.19-1.19,1.19h-25.02c-0.69,0-1.19-0.56-1.19-1.19V304.99z"/>
	<path class="st0" d="M702.04,341.27c0.56-0.81,1.06-1.75,1.63-2.56c0.56-0.81,1.44-1.06,2.13-0.5c0.38,0.31,5.19,4.32,10.01,4.32
		c4.32,0,7.07-2.63,7.07-5.82c0-3.75-3.25-6.13-9.45-8.7c-6.38-2.69-11.39-6.01-11.39-13.26c0-4.88,3.75-11.57,13.7-11.57
		c6.26,0,10.95,3.25,11.57,3.69c0.5,0.31,1,1.19,0.38,2.13c-0.5,0.75-1.06,1.63-1.56,2.38c-0.5,0.81-1.31,1.19-2.19,0.63
		c-0.44-0.25-4.82-3.13-8.45-3.13c-5.26,0-7.07,3.32-7.07,5.63c0,3.57,2.75,5.76,7.95,7.88c7.26,2.94,13.45,6.38,13.45,14.01
		c0,6.51-5.82,11.82-13.95,11.82c-7.63,0-12.45-4-13.45-4.94C701.85,342.78,701.42,342.34,702.04,341.27z"/>
	<path class="st0" d="M764.1,303.17c6.32,0,10.89,2.13,15.14,5.82c0.56,0.5,0.56,1.25,0.06,1.75l-2.75,2.82
		c-0.44,0.56-1,0.56-1.56,0c-2.94-2.56-6.94-4.19-10.82-4.19c-8.95,0-15.7,7.51-15.7,16.27c0,8.76,6.82,16.2,15.77,16.2
		c4.57,0,7.76-1.81,10.76-4.13c0.56-0.44,1.13-0.38,1.5-0.06l2.88,2.82c0.5,0.44,0.38,1.25-0.06,1.69
		c-4.25,4.13-9.63,6.07-15.2,6.07c-12.51,0-22.58-9.95-22.58-22.46S751.59,303.17,764.1,303.17z"/>
	<path class="st0" d="M794.51,304.99c0-0.63,0.56-1.19,1.19-1.19h4.13c0.69,0,1.19,0.56,1.19,1.19v17.45h22.9v-17.45
		c0-0.63,0.5-1.19,1.19-1.19h4.13c0.62,0,1.19,0.56,1.19,1.19v41.42c0,0.63-0.56,1.19-1.19,1.19h-4.13c-0.69,0-1.19-0.56-1.19-1.19
		v-18.08h-22.9v18.08c0,0.63-0.5,1.19-1.19,1.19h-4.13c-0.62,0-1.19-0.56-1.19-1.19V304.99z"/>
	<path class="st0" d="M868.09,303.17c12.51,0,22.52,10.07,22.52,22.58s-10.01,22.46-22.52,22.46c-12.51,0-22.46-9.95-22.46-22.46
		S855.57,303.17,868.09,303.17z M868.09,341.96c8.95,0,16.27-7.26,16.27-16.2c0-8.88-7.32-16.33-16.27-16.33
		c-8.88,0-16.2,7.44-16.2,16.33C851.88,334.71,859.2,341.96,868.09,341.96z"/>
	<path class="st0" d="M925.08,303.17c12.51,0,22.52,10.07,22.52,22.58s-10.01,22.46-22.52,22.46c-12.51,0-22.46-9.95-22.46-22.46
		S912.57,303.17,925.08,303.17z M925.08,341.96c8.95,0,16.27-7.26,16.27-16.2c0-8.88-7.32-16.33-16.27-16.33
		c-8.88,0-16.2,7.44-16.2,16.33C908.88,334.71,916.2,341.96,925.08,341.96z"/>
	<path class="st0" d="M962.81,304.99c0-0.63,0.5-1.19,1.19-1.19h4.13c0.63,0,1.19,0.56,1.19,1.19v36.79h16.95
		c0.69,0,1.19,0.56,1.19,1.19v3.44c0,0.63-0.5,1.19-1.19,1.19H964c-0.69,0-1.19-0.56-1.19-1.19V304.99z"/>
</g>
<g>
	<path class="st0" d="M498.12,151.33c0-1.83,1.64-3.29,3.47-3.29h4.56l72.86,70.12h0.18v-64.82c0-1.83,1.46-3.47,3.47-3.47h21.91
		c1.83,0,3.47,1.64,3.47,3.47v122.89c0,1.83-1.64,3.29-3.47,3.29h-2.92c-0.55,0-2.01-0.55-2.37-0.91l-72.13-72.49h-0.18v68.11
		c0,1.83-1.46,3.47-3.47,3.47h-21.73c-1.83,0-3.47-1.64-3.47-3.47L498.12,151.33z"/>
	<path class="st0" d="M713.95,148.05c36.52,0,65.74,29.4,65.74,65.92s-29.22,65.55-65.74,65.55s-65.55-29.03-65.55-65.55
		S677.43,148.05,713.95,148.05z M713.95,250.3c20.09,0,36.52-16.43,36.52-36.34c0-20.09-16.43-36.7-36.52-36.7
		c-19.9,0-36.34,16.62-36.34,36.7C677.62,233.87,694.05,250.3,713.95,250.3z"/>
	<path class="st0" d="M802.51,154.62c-1.1-2.37,0.37-4.75,3.1-4.75h24.29c1.46,0,2.74,1.1,3.1,2.01l30.13,66.65h1.1l30.13-66.65
		c0.37-0.91,1.64-2.01,3.1-2.01h24.29c2.74,0,4.2,2.37,3.1,4.75l-57.34,122.89c-0.55,1.1-1.64,2.01-3.1,2.01h-1.83
		c-1.46,0-2.56-0.91-3.1-2.01L802.51,154.62z"/>
	<path class="st0" d="M958.08,153.34c0-1.83,1.64-3.47,3.47-3.47h21.91c1.83,0,3.47,1.64,3.47,3.47v120.88
		c0,1.83-1.64,3.47-3.47,3.47h-21.91c-1.83,0-3.47-1.64-3.47-3.47V153.34z"/>
</g>
</svg>
